<svg xmlns="http://www.w3.org/2000/svg" width="390" height="844" viewBox="0 0 390 844"><rect width="390" height="844" fill="#f4fbfb"/><rect x="18" y="18" width="354" height="808" rx="34" fill="#ffffff" stroke="#cbe4e8"/><circle cx="62" cy="66" r="22" fill="#0b5f8f"/><path d="M52 66h20M62 56v20" stroke="#fff" stroke-width="4" stroke-linecap="round"/><text x="96" y="74" font-family="Arial" font-size="22" font-weight="700" fill="#102033">MediBridge</text><text x="28" y="138" font-family="Arial" font-size="13" font-weight="700" letter-spacing="3" fill="#0b5f8f">SERVICE LIST</text><text x="28" y="184" font-family="Arial" font-size="36" font-weight="800" fill="#102033">Service List</text><rect x="28" y="240" width="334" height="96" rx="24" fill="#eaf6f5" stroke="#d7eaee"/><text x="52" y="278" font-family="Arial" font-size="18" font-weight="700" fill="#102033">Primary action</text><text x="52" y="306" font-family="Arial" font-size="15" fill="#526579">Blue, green and white hospital UI</text><rect x="28" y="356" width="334" height="96" rx="24" fill="#ffffff" stroke="#d7eaee"/><text x="52" y="394" font-family="Arial" font-size="18" font-weight="700" fill="#102033">Information card</text><text x="52" y="422" font-family="Arial" font-size="15" fill="#526579">Blue, green and white hospital UI</text><rect x="28" y="472" width="334" height="96" rx="24" fill="#e8f4ff" stroke="#d7eaee"/><text x="52" y="510" font-family="Arial" font-size="18" font-weight="700" fill="#102033">Schedule details</text><text x="52" y="538" font-family="Arial" font-size="15" fill="#526579">Blue, green and white hospital UI</text><rect x="28" y="588" width="334" height="96" rx="24" fill="#ffffff" stroke="#d7eaee"/><text x="52" y="626" font-family="Arial" font-size="18" font-weight="700" fill="#102033">Records / service list</text><text x="52" y="654" font-family="Arial" font-size="15" fill="#526579">Blue, green and white hospital UI</text><rect x="48" y="728" width="294" height="58" rx="18" fill="#10b79f"/><text x="195" y="764" text-anchor="middle" font-family="Arial" font-size="17" font-weight="700" fill="#062a2b">Continue</text></svg>