<svg xmlns="http://www.w3.org/2000/svg" width="1400" height="360" viewBox="0 0 1400 360"><rect width="1400" height="360" fill="#f4fbfb"/><text x="60" y="70" font-family="Arial" font-size="34" font-weight="700" fill="#102033">Hospital Management System — User Flow Diagram</text><defs><marker id="arrow" markerWidth="12" markerHeight="12" refX="10" refY="6" orient="auto"><path d="M2,2 L10,6 L2,10" fill="#0b5f8f"/></marker></defs><rect x="60" y="140" width="180" height="100" rx="22" fill="#ffffff" stroke="#0b5f8f" stroke-width="3"/><text x="150" y="178" text-anchor="middle" font-family="Arial" font-size="19" font-weight="700" fill="#102033">Login/Register</text><text x="150" y="210" text-anchor="middle" font-family="Arial" font-size="15" fill="#526579">Secure access</text><line x1="250" y1="190" x2="305" y2="190" stroke="#0b5f8f" stroke-width="4" marker-end="url(#arrow)"/><rect x="280" y="140" width="180" height="100" rx="22" fill="#ffffff" stroke="#0b5f8f" stroke-width="3"/><text x="370" y="178" text-anchor="middle" font-family="Arial" font-size="19" font-weight="700" fill="#102033">Dashboard</text><text x="370" y="210" text-anchor="middle" font-family="Arial" font-size="15" fill="#526579">Service overview</text><line x1="470" y1="190" x2="525" y2="190" stroke="#0b5f8f" stroke-width="4" marker-end="url(#arrow)"/><rect x="500" y="140" width="180" height="100" rx="22" fill="#ffffff" stroke="#0b5f8f" stroke-width="3"/><text x="590" y="178" text-anchor="middle" font-family="Arial" font-size="19" font-weight="700" fill="#102033">Select Doctor</text><text x="590" y="210" text-anchor="middle" font-family="Arial" font-size="15" fill="#526579">Availability list</text><line x1="690" y1="190" x2="745" y2="190" stroke="#0b5f8f" stroke-width="4" marker-end="url(#arrow)"/><rect x="720" y="140" width="180" height="100" rx="22" fill="#ffffff" stroke="#0b5f8f" stroke-width="3"/><text x="810" y="178" text-anchor="middle" font-family="Arial" font-size="19" font-weight="700" fill="#102033">Book Appointment</text><text x="810" y="210" text-anchor="middle" font-family="Arial" font-size="15" fill="#526579">Choose date/time</text><line x1="910" y1="190" x2="965" y2="190" stroke="#0b5f8f" stroke-width="4" marker-end="url(#arrow)"/><rect x="940" y="140" width="180" height="100" rx="22" fill="#ffffff" stroke="#0b5f8f" stroke-width="3"/><text x="1030" y="178" text-anchor="middle" font-family="Arial" font-size="19" font-weight="700" fill="#102033">Confirmation</text><text x="1030" y="210" text-anchor="middle" font-family="Arial" font-size="15" fill="#526579">Booking success</text><line x1="1130" y1="190" x2="1185" y2="190" stroke="#0b5f8f" stroke-width="4" marker-end="url(#arrow)"/><rect x="1160" y="140" width="180" height="100" rx="22" fill="#ffffff" stroke="#0b5f8f" stroke-width="3"/><text x="1250" y="178" text-anchor="middle" font-family="Arial" font-size="19" font-weight="700" fill="#102033">Profile/Records</text><text x="1250" y="210" text-anchor="middle" font-family="Arial" font-size="15" fill="#526579">Medical history</text></svg>